<?xml version="1.0" encoding="UTF-8"?>
<!DOCTYPE svg PUBLIC "-//W3C//DTD SVG 1.1//EN" "http://www.w3.org/Graphics/SVG/1.1/DTD/svg11.dtd">
<!-- Creator: CorelDRAW X8 -->
<svg xmlns="http://www.w3.org/2000/svg" xml:space="preserve" width="1181px" height="591px" version="1.1" style="shape-rendering:geometricPrecision; text-rendering:geometricPrecision; image-rendering:optimizeQuality; fill-rule:evenodd; clip-rule:evenodd"
viewBox="0 0 1181 591"
 xmlns:xlink="http://www.w3.org/1999/xlink">
 <defs>
  <style type="text/css">
   <![CDATA[
    .str0 {stroke:#373435;stroke-width:0.899922}
    .str1 {stroke:#00804E;stroke-width:5.71486}
    .fil6 {fill:#FEFEFE}
    .fil1 {fill:#FEFEFE}
    .fil2 {fill:#373435}
    .fil4 {fill:#FFD525}
    .fil3 {fill:#D83135}
    .fil0 {fill:#00804E}
    .fil8 {fill:#FEFEFE;fill-rule:nonzero}
    .fil5 {fill:#373435;fill-rule:nonzero}
    .fil7 {fill:#00804E;fill-rule:nonzero}
   ]]>
  </style>
     <clipPath id="id0">
      <path d="M56 111l289 0 0 292 -289 0 0 -292z"/>
     </clipPath>
 </defs>
 <g id="Capa_x0020_1">
  <metadata id="CorelCorpID_0Corel-Layer"/>
  <g id="_1571223127648">
   <polygon class="fil0" points="213,317 1170,317 1170,447 213,447 "/>
   <path class="fil1" d="M14 259c0,-102 83,-186 186,-186 103,0 186,84 186,186 0,77 -47,144 -113,172 -23,9 -47,15 -73,15 -103,0 -186,-84 -186,-187z"/>
   <path class="fil2" d="M21 259c0,-98 80,-178 179,-178 99,0 179,80 179,178 0,74 -45,138 -109,165 -22,9 -45,14 -70,14 -99,0 -179,-80 -179,-179z"/>
   <path class="fil3" d="M25 259c0,-96 78,-175 175,-175 97,0 175,79 175,175 0,97 -78,176 -175,176 -97,0 -175,-79 -175,-176z"/>
   <g>
    <g style="clip-path:url(#id0)">
     <image x="56" y="111" width="290" height="292" xlink:href="logou_Images\logou_ImgID1.png"/>
    </g>
   </g>
   <path class="fil4" d="M157 209c-1,-2 -2,-4 -3,-5 -11,-15 -2,-18 -5,-26 -3,-12 -21,-13 -11,-35 0,6 7,17 15,19 7,1 16,6 16,16 1,13 7,14 12,19l-9 -48 16 44c0,-2 0,-4 0,-6 -2,-19 7,-18 9,-26 3,-11 -13,-21 7,-35 -3,5 -2,17 4,24 5,4 11,13 6,22 -7,12 -2,16 0,24l16 -46 -8 48c1,-2 2,-4 3,-6 7,-17 14,-12 20,-18 8,-8 0,-25 24,-27 -5,3 -11,14 -8,23 2,6 2,17 -6,22 -11,6 -10,12 -12,19l37 -33 -32 38c2,-1 5,-2 7,-3 14,-11 18,-3 26,-5 11,-3 13,-22 35,-12 -6,1 -17,7 -19,16 -2,7 -6,16 -16,16 -13,0 -14,5 -19,9l47 -8 -45 16c2,0 4,0 6,-1 18,-2 17,7 25,9 11,3 22,-12 36,7 -5,-2 -18,-2 -24,5 -5,5 -14,10 -22,5 -12,-6 -16,-1 -23,0l47 17 -49 -9c2,1 4,3 6,4 17,7 11,15 17,20 9,9 25,0 28,24 -3,-4 -14,-10 -23,-8 -7,2 -17,2 -22,-6 -7,-11 -12,-11 -18,-13l32 38 -36 -30c1,1 2,3 3,5 11,15 3,18 5,26 3,11 22,13 12,35 0,-6 -7,-17 -16,-19 -7,-2 -16,-6 -16,-16 0,-13 -4,-14 -9,-20l7 46 -15 -41c0,2 0,3 0,5 2,18 -7,17 -9,25 -3,11 12,22 -7,36 3,-5 2,-18 -4,-24 -5,-5 -11,-14 -6,-22 7,-13 2,-16 1,-24l-17 48 8 -47c0,1 -1,3 -2,5 -7,16 -15,11 -21,17 -8,8 0,25 -24,27 5,-3 11,-14 9,-23 -2,-6 -3,-16 6,-21 10,-7 9,-13 11,-19l-38 32 29 -37c-2,1 -3,2 -4,3 -15,10 -19,2 -27,4 -11,3 -12,22 -34,12 6,0 16,-7 19,-16 1,-6 6,-15 16,-15 12,-1 16,-7 21,-11l-50 9 47 -17c-2,0 -5,0 -8,1 -18,2 -17,-7 -25,-9 -11,-3 -22,12 -36,-7 5,2 18,2 24,-5 5,-5 13,-10 22,-5 11,6 15,2 22,0l-45 -17 47 9c-2,-1 -3,-2 -5,-3 -17,-8 -12,-15 -18,-21 -8,-8 -25,0 -27,-24 3,5 14,11 23,9 6,-2 17,-3 22,6 6,10 11,10 18,12l-31 -37 35 30z"/>
   <path class="fil5" d="M35 272c3,-1 6,-1 10,-1 6,-1 9,1 10,6 0,3 0,5 -1,6 -2,2 -4,3 -8,3 -3,0 -6,1 -9,1l-1 -4c4,0 7,0 10,-1 2,0 4,0 5,-1 1,-1 1,-2 1,-4 0,-1 -1,-2 -2,-3 -1,0 -3,0 -5,0 -3,1 -6,1 -9,2l-1 -4zm19 -23l0 4c-1,0 -3,1 -7,3 -4,3 -6,4 -8,5l0 0c2,0 4,0 6,0 2,0 5,0 8,0l0 3c-3,0 -6,0 -9,0 -4,0 -7,0 -9,0l0 -4c0,0 2,-2 6,-4 4,-2 6,-4 8,-4l0 0c-2,0 -4,0 -6,0 -3,0 -5,0 -8,0l0 -4c2,1 5,1 9,1 4,0 7,0 10,0zm1 -9l-1 4c-3,-1 -6,-1 -9,-2 -4,0 -7,-1 -9,-1l0 -4c3,1 6,1 9,2 4,0 7,1 10,1zm-14 -24c0,0 3,2 8,5 5,4 8,5 8,6l0 3c-1,0 -4,1 -10,1 -6,1 -9,1 -10,1l1 -4c1,0 3,0 8,-1 4,0 7,0 7,0l0 0c0,0 -2,-1 -6,-3 -4,-3 -6,-4 -7,-4l1 -4zm20 -12l3 2 -4 11c-3,-1 -6,-2 -10,-3 -3,-1 -6,-2 -8,-3l4 -11 3 1c-1,3 -2,5 -3,7 1,1 3,1 4,2 1,-2 2,-4 2,-6l3 1c-1,2 -1,4 -2,6 2,0 4,1 5,1 1,-2 2,-5 3,-8zm11 -16l-2 4c-3,-1 -6,-1 -7,-1 -1,0 -1,1 -2,2 0,1 -1,1 -1,1 2,2 5,3 7,4l-2 3c-2,-1 -5,-3 -9,-4 -3,-2 -5,-3 -8,-4l2 -3c0,0 0,0 0,-1 1,-1 1,-2 2,-3 2,-3 4,-5 7,-3 2,1 3,3 2,5l1 1c0,-1 1,-2 3,-2 1,0 4,1 7,1zm-14 -1c-2,-1 -3,-1 -4,1 -1,1 -1,2 -1,3 1,0 3,1 5,2 0,0 0,-1 1,-1 1,-3 1,-4 -1,-5zm18 -15c3,2 3,5 0,10 -1,1 -2,3 -3,4l-2 -3c1,-1 2,-2 3,-3 1,-1 1,-2 1,-3 0,-1 0,-1 0,-2 -1,0 -2,0 -2,0 -1,0 -2,1 -4,2 -1,1 -2,2 -3,2 -2,0 -3,0 -4,-1 -2,-1 -2,-2 -2,-4 0,-1 0,-3 1,-5 1,-1 2,-3 3,-4l3 3c-1,0 -2,1 -3,3 -1,2 -2,3 -1,4 1,0 2,0 2,0 1,0 2,-1 3,-2 2,-1 3,-2 4,-2 1,0 3,0 4,1zm10 -4l-3 3c-2,-2 -5,-4 -7,-6 -3,-2 -6,-4 -8,-6l3 -3c2,2 4,4 7,6 3,2 5,4 8,6zm6 -22c2,2 3,4 4,6 0,3 -1,6 -3,8 -1,1 -3,2 -4,4 -2,-2 -5,-4 -7,-7 -3,-2 -5,-4 -7,-6l2 -2c0,0 1,-1 1,-1 1,-1 1,-1 1,-1 3,-3 5,-4 7,-4 3,0 5,1 6,3zm-2 3c-1,-1 -3,-2 -4,-2 -2,0 -4,0 -5,2 0,0 -1,1 -1,1 1,2 3,3 4,4 2,2 3,4 5,5 1,0 1,-1 2,-1 1,-2 2,-3 1,-5 0,-1 -1,-3 -2,-4zm26 -10l-4 3c-1,0 -2,-1 -4,-3l-6 4c1,3 2,4 3,5l-4 3c0,-1 -1,-4 -3,-10 -2,-6 -3,-9 -3,-9l4 -4c1,1 3,3 8,6 5,3 8,5 9,5zm-11 -2c-4,-3 -6,-4 -7,-5l0 0c0,1 1,3 3,8l4 -3zm22 -16c1,2 2,5 1,7 0,3 -2,5 -5,7 -1,0 -3,1 -5,2 -1,-2 -3,-5 -5,-8 -1,-3 -3,-6 -4,-8l2 -1c0,0 1,-1 2,-1 0,-1 1,-1 1,-1 3,-2 6,-2 8,-1 2,0 4,2 5,4zm-3 2c-1,-1 -2,-2 -4,-3 -1,0 -3,0 -5,1 0,0 -1,0 -1,1 1,1 2,3 3,5 1,2 2,4 3,6 1,0 1,-1 2,-1 2,-1 3,-2 3,-4 0,-1 0,-3 -1,-5zm35 -8l1 3c-1,1 -2,2 -4,2 -3,1 -6,1 -8,0 -2,-2 -3,-3 -4,-6 -1,-2 -1,-5 0,-7 1,-3 3,-5 6,-6 2,0 3,0 4,0l0 3c-1,0 -2,0 -3,1 -2,0 -3,1 -4,3 0,1 0,3 0,4 1,2 2,3 4,4 1,1 3,1 5,1 1,-1 2,-1 3,-2zm21 -1l-5 1c0,-1 -1,-2 -2,-5l-6 1c-1,3 -1,5 -1,6l-4 1c0,-1 0,-4 1,-10 1,-6 2,-9 2,-10l5 -1c0,0 2,3 5,8 3,6 5,8 5,9zm-8 -7c-3,-4 -4,-7 -4,-7l-1 0c1,0 0,3 0,8l5 -1zm22 -13l0 3c-2,0 -4,0 -5,0 0,2 0,4 0,6 0,4 1,7 1,10l-4 1c0,-4 0,-7 -1,-10 0,-2 0,-4 0,-6 -1,0 -3,0 -6,0l0 -3 15 -1zm22 9c0,3 -1,6 -2,8 -2,2 -5,2 -7,2 -3,0 -5,-1 -7,-2 -1,-2 -2,-4 -2,-7 0,-3 1,-6 3,-7 2,-2 4,-3 7,-3 2,0 4,1 6,3 2,1 2,4 2,6zm-4 1c0,-2 0,-4 -1,-5 -1,-1 -2,-2 -4,-2 -1,0 -2,0 -3,2 -1,1 -2,3 -2,4 0,2 0,4 1,5 1,2 3,2 4,2 2,0 3,0 4,-2 1,-1 1,-2 1,-4zm1 -15c0,0 -1,0 -2,2 -1,1 -2,1 -2,2l-2 0c0,-1 0,-1 1,-2 1,-2 1,-2 1,-2l4 0zm20 24l-1 3 -12 -2c1,-2 2,-5 2,-9 1,-4 1,-7 2,-9l4 1c-1,2 -1,5 -2,8 -1,3 -1,5 -1,7 2,0 5,1 8,1zm6 5l-4 -1c1,-3 2,-6 3,-9 1,-4 2,-7 2,-9l4 1c-1,2 -1,5 -2,9 -1,3 -2,6 -3,9zm19 3l-1 3c-1,0 -3,-1 -4,-1 -3,-1 -5,-3 -6,-5 -1,-2 -2,-4 -1,-7 1,-3 3,-4 5,-6 2,-1 5,-1 8,0 1,0 2,0 3,1l-1 3c-1,-1 -2,-1 -3,-1 -2,-1 -4,-1 -5,0 -1,1 -2,2 -3,4 0,2 0,3 0,5 1,1 2,3 4,3 1,1 3,1 4,1zm17 12l-4 -2c0,0 1,-2 1,-5l-6 -3c-2,2 -3,3 -3,4l-4 -2c0,0 3,-3 7,-7 5,-4 7,-6 7,-7l5 3c0,0 0,3 -1,9 -1,6 -2,10 -2,10zm-2 -10c1,-5 1,-8 1,-8l0 0c0,0 -2,2 -6,6l5 2zm34 22c-2,2 -4,3 -7,4 -2,0 -5,-1 -7,-3 -1,-1 -3,-2 -5,-4 2,-2 4,-4 7,-7 2,-3 4,-5 5,-7l2 2c1,0 1,0 2,1 0,0 1,1 1,1 3,2 4,4 4,7 0,2 -1,4 -2,6zm-3 -2c1,-2 1,-3 1,-5 0,-1 -1,-3 -2,-4 -1,-1 -1,-1 -2,-1 -1,1 -2,3 -3,4 -2,2 -3,4 -5,6 1,0 1,1 2,1 1,1 3,2 4,1 2,0 3,-1 5,-2zm10 19l-2 2 -8 -9c2,-1 4,-4 7,-6 2,-3 4,-5 6,-7l8 9 -2 2c-2,-2 -4,-4 -5,-6 -1,1 -2,2 -4,4 2,1 3,2 5,4l-2 2c-2,-2 -3,-3 -5,-5 -1,2 -2,3 -4,4 2,2 4,4 6,6zm27 20c-2,1 -4,1 -6,1 -1,-1 -3,-3 -4,-5 -1,0 -1,0 -1,-1 -1,1 -3,3 -6,4l-2 -3c2,-1 5,-3 8,-5 3,-2 6,-4 8,-5l1 2c0,0 1,1 1,2 1,1 1,1 2,2 1,1 1,3 1,4 0,2 -1,3 -2,4zm-3 -3c2,-1 2,-2 1,-5 -1,0 -1,-1 -2,-1 -1,1 -3,2 -5,3 0,0 1,0 1,1 2,3 4,4 5,2zm1 24l-3 1 -5 -11c3,-1 6,-2 9,-4 3,-1 6,-2 8,-4l5 11 -3 1c-1,-3 -2,-5 -3,-7 -1,1 -3,1 -4,2 0,2 1,4 2,6l-2 1c-1,-2 -2,-4 -3,-6 -2,1 -3,2 -5,3 1,2 3,5 4,7zm4 20l-2 -4c3,-2 5,-4 5,-5 1,-1 1,-2 0,-3 0,0 0,-1 0,-1 -2,0 -5,1 -7,2l-1 -4c2,0 5,-1 9,-3 3,-1 6,-2 8,-3l1 3c0,0 0,0 1,1 0,1 0,2 1,3 1,4 0,6 -3,7 -2,1 -4,1 -5,-2l-1 1c0,1 0,2 -1,3 -1,1 -3,2 -5,5zm10 -10c2,0 3,-2 2,-4 0,-1 -1,-2 -1,-2 -2,0 -3,1 -6,2 1,0 1,1 1,1 1,3 2,4 4,3zm-5 25l-3 0 -2 -12c3,0 6,-1 10,-2 3,0 6,-1 8,-1l3 11 -4 0c0,-2 0,-5 -1,-7 -1,0 -3,0 -4,1 0,2 0,4 1,6l-3 1c0,-3 -1,-5 -1,-7 -2,1 -4,1 -5,1 0,3 1,6 1,9zm-2 9l0 -4c3,0 6,-1 10,-1 3,0 6,-1 8,-1l1 4c-3,0 -6,0 -9,1 -4,0 -7,0 -10,1zm1 20l0 -4c3,-2 5,-2 6,-3 1,-1 1,-2 1,-3 0,-1 0,-1 0,-2 -2,0 -5,1 -7,1l-1 -4c3,0 7,0 10,0 4,0 7,-1 9,-1l0 3c0,0 0,1 0,1 0,1 0,2 0,3 1,4 -1,7 -4,7 -2,0 -4,-1 -5,-4l0 0c0,1 -1,2 -2,3 -2,1 -4,2 -7,3zm13 -6c2,0 3,-1 3,-4 0,-1 0,-1 -1,-2 -1,0 -3,0 -5,0 0,1 0,1 0,2 0,3 1,4 3,4zm-16 26l1 -5c1,0 2,0 5,-1l1 -6c-3,-2 -4,-2 -5,-2l1 -5c0,0 3,2 8,5 6,3 9,4 9,4l0 6c-1,0 -4,0 -10,2 -6,1 -9,2 -10,2zm9 -6c5,-1 8,-2 9,-2l0 0c-1,0 -3,-1 -8,-3l-1 5z"/>
   <path class="fil5" d="M65 355l-2 -3c2,-2 5,-4 8,-6 3,-2 5,-4 7,-5l2 3c-2,1 -4,3 -7,5 -3,2 -6,4 -8,6zm14 13l-3 1 -7 -9c2,-2 5,-3 8,-6 2,-2 5,-4 7,-6l2 4c-2,1 -4,3 -7,5 -2,2 -4,3 -6,4 2,2 4,4 6,7zm11 12l-2 2 -9 -9c2,-2 5,-4 8,-7 2,-2 4,-4 6,-6l3 3c-2,1 -4,3 -7,6 -2,2 -4,3 -5,5 2,1 4,3 6,6zm25 -1c-2,3 -4,5 -6,8 -4,5 -8,6 -12,2 -2,-1 -3,-3 -3,-5 -1,-2 1,-4 3,-7 2,-3 4,-5 6,-8l3 3c-2,2 -4,5 -6,7 -2,2 -3,4 -3,5 0,1 1,2 2,3 1,1 2,1 3,1 1,0 3,-2 4,-4 2,-2 4,-5 6,-7l3 2zm12 30l-3 -3c0,-1 2,-3 4,-7 1,-3 3,-5 3,-6l0 0c0,0 -1,1 -2,2 -2,1 -3,3 -6,5 -2,2 -4,3 -4,4l-3 -2c0,-1 1,-2 2,-6 0,-3 1,-5 1,-6 0,-1 1,-3 1,-4l0 0c-1,1 -2,3 -4,7 -3,3 -4,5 -5,6l-3 -2c0,0 2,-2 5,-7 4,-4 6,-7 7,-8l4 3c0,1 -1,3 -2,7 -1,4 -1,6 -2,7l0 0c1,-1 3,-3 6,-5 3,-2 4,-4 5,-5l5 3c-1,2 -3,5 -5,9 -2,5 -4,7 -4,8zm10 4l-4 -2c1,-3 3,-6 4,-9 2,-3 3,-6 4,-8l4 2c-1,2 -3,4 -4,8 -2,3 -3,6 -4,9zm20 7l-3 -1c0,-1 0,-3 -2,-8 -1,-4 -2,-7 -1,-9l-1 0c0,2 -1,4 -1,6 -1,2 -2,5 -3,8l-3 -1c1,-3 2,-6 3,-9 1,-4 2,-7 3,-9l4 1c0,1 0,3 1,7 2,5 2,8 2,9l0 0c1,-2 1,-4 2,-6 1,-2 1,-5 2,-7l4 1c-1,2 -2,5 -4,8 -1,4 -2,7 -3,10zm23 4l-5 -1c1,0 0,-2 0,-5l-6 -2c-2,3 -3,5 -3,5l-4 0c0,-1 2,-4 5,-9 3,-5 5,-8 5,-9l6 1c-1,1 0,4 1,10 1,6 1,10 1,10zm-5 -9c-1,-5 -1,-8 -1,-9l0 0c0,1 -2,3 -4,8l5 1zm24 -8l-1 3c-2,-1 -3,-1 -5,-1 0,2 -1,4 -1,6 0,4 0,7 0,10l-4 0c0,-3 0,-7 1,-10 0,-2 0,-4 0,-6 -1,0 -3,0 -6,0l1 -4 15 2zm37 14l-4 1c-1,-3 -1,-6 -2,-8l-7 1c1,2 1,5 2,8l-4 1c-1,-3 -1,-6 -2,-10 0,-3 -1,-6 -2,-8l4 -1c1,2 1,5 2,7l7 -1c-1,-2 -1,-5 -2,-8l4 0c0,2 1,5 2,9 0,3 1,6 2,9zm19 -16c1,3 1,6 0,8 -1,3 -3,4 -5,5 -3,1 -5,1 -7,0 -2,-2 -4,-3 -5,-6 -1,-3 -1,-5 0,-8 2,-2 3,-4 6,-5 2,-1 4,0 7,1 2,1 3,3 4,5zm-3 2c-1,-2 -2,-3 -3,-4 -2,-1 -3,-1 -5,-1 -1,1 -2,2 -2,3 -1,2 -1,3 0,5 1,2 2,4 3,4 1,1 3,1 4,1 1,-1 2,-2 3,-3 0,-2 0,-3 0,-5zm31 -4l-4 2c-1,-2 -2,-4 -4,-7 -2,-4 -3,-6 -3,-7l-1 0c1,1 1,2 1,4 1,1 1,4 1,7 1,3 1,5 1,5l-3 2c0,-1 -1,-2 -4,-4 -2,-2 -4,-4 -4,-5 -1,-1 -2,-2 -3,-3l0 0c1,1 2,4 3,7 2,4 3,6 3,7l-3 2c0,0 -1,-3 -3,-8 -2,-5 -3,-8 -4,-10l5 -2c1,1 2,3 5,5 3,3 4,5 5,6l0 0c0,-1 -1,-3 -1,-7 -1,-4 -1,-7 -2,-8l5 -2c1,2 3,5 6,9 2,4 4,7 4,7zm9 -6l-4 3c-1,-3 -3,-6 -5,-9 -2,-3 -4,-5 -5,-7l3 -2c2,2 3,4 5,7 2,3 4,6 6,8zm17 -13l-3 2c0,0 -2,-1 -7,-2 -4,-1 -7,-2 -8,-3l-1 0c2,1 3,3 4,4 2,2 4,4 6,7l-3 2c-2,-3 -4,-5 -6,-8 -2,-3 -4,-5 -6,-7l4 -2c0,0 2,1 6,2 5,1 7,3 8,3l1 0c-2,-1 -3,-3 -4,-4 -2,-2 -4,-4 -6,-6l3 -2c2,2 3,4 6,7 2,2 4,5 6,7zm11 -15l2 2 -8 9c-2,-2 -4,-4 -7,-7 -3,-2 -5,-4 -7,-6l8 -8 3 2c-3,2 -4,4 -6,6 1,0 2,2 4,3 1,-2 2,-3 4,-5l2 2c-2,2 -3,3 -4,5 1,1 2,2 4,3 1,-2 3,-4 5,-6zm20 -19l-3 3c-1,-1 -4,-2 -7,-5 -3,-2 -5,-3 -6,-4l0 0c1,1 1,2 2,3 1,1 3,3 4,6 2,3 3,4 4,5l-2 2c-1,0 -3,-1 -6,-2 -3,-1 -5,-2 -6,-2 -1,-1 -2,-1 -3,-2l-1 0c1,1 3,3 6,6 3,2 5,4 6,5l-2 3c0,-1 -2,-3 -6,-7 -4,-4 -7,-6 -8,-7l4 -4c1,1 3,2 6,3 4,1 6,2 7,3l0 0c-1,-1 -2,-3 -4,-6 -2,-3 -4,-5 -4,-6l3 -4c2,1 4,3 9,6 4,2 6,4 7,4z"/>
   <path class="fil2 str0" d="M168 226l0 0 0 0c7,-4 16,-5 25,-3 2,0 3,1 5,1 1,1 2,1 3,2l1 0c0,0 0,0 0,0l0 0c1,-1 2,-2 4,-2 2,-1 3,-1 5,-1 8,-2 18,-1 25,3l0 0 0 0 0 0 6 8c0,0 0,0 0,0 0,0 0,42 0,57 0,1 -1,1 -2,1 0,0 -13,-6 -29,-2l0 1c0,0 -1,1 -1,1l-16 0c0,0 0,-1 0,-1l0 -2c-16,-4 -31,2 -31,2 -1,1 -1,0 -1,0 0,-15 -1,-57 -1,-58 0,0 1,0 1,0l6 -7zm2 55c4,-2 17,-6 31,0l0 -54c-1,0 -3,-1 -4,-1 -1,-1 -3,-1 -4,-1 -8,-2 -17,-2 -24,2 1,4 1,37 1,52l0 1 0 0 0 1zm33 0c14,-6 27,-2 31,0l0 -1 0 0c0,-15 0,-50 0,-53 -6,-4 -15,-4 -23,-3 -1,1 -3,1 -4,2 -2,0 -3,0 -4,1l0 54z"/>
   <path class="fil6" d="M201 227c-1,0 -3,-1 -4,-1 -1,-1 -3,-1 -4,-1 -8,-2 -17,-2 -24,2 1,5 1,39 1,54 4,-2 17,-6 31,0l0 -54z"/>
   <path class="fil6" d="M207 226c-2,0 -3,0 -4,1l0 54c14,-6 27,-2 31,0 0,-15 0,-49 0,-54 -6,-4 -15,-4 -23,-3 -1,1 -3,1 -4,2z"/>
   <path class="fil2" d="M192 240c-3,1 -4,2 -9,3l0 1c1,0 5,-1 2,6l-4 11c0,2 0,5 3,5 5,0 8,-5 8,-6l-1 0c0,1 -1,3 -3,4 -1,0 -3,0 -3,-1 -1,-2 0,-3 1,-4l6 -19z"/>
   <path class="fil2" d="M227 236l-8 12 0 -8c0,-2 -1,-4 -3,-4 -1,-1 -2,-1 -4,1 -2,2 -3,5 -3,7l0 0c1,-1 1,-3 3,-4 1,-1 2,-1 4,0 1,1 1,2 1,4l1 6 -13 18 4 0 9 -12 0 0c0,3 0,5 0,8 1,2 1,3 2,4 1,2 4,1 5,0 2,-1 4,-6 4,-7l-1 0c0,1 -1,3 -3,4 -2,0 -4,-1 -4,-3 -1,-1 -1,-3 -1,-8l12 -18 -5 0z"/>
   <path class="fil7" d="M547 80l32 0 0 2 -2 0c-2,0 -4,0 -5,1 -1,0 -1,1 -2,2 0,0 0,3 0,6l0 30c0,5 0,9 1,11 1,1 2,3 4,4 2,1 4,2 7,2 3,0 6,-1 9,-2 2,-2 4,-4 5,-7 1,-2 1,-7 1,-13l0 -25c0,-3 0,-5 0,-6 -1,-1 -2,-2 -3,-2 -1,-1 -3,-1 -5,-1l0 -2 21 0 0 2 -2 0c-1,0 -3,0 -4,1 -1,1 -2,2 -2,3 -1,1 -1,3 -1,5l0 23c0,7 0,12 -1,16 -1,3 -3,6 -7,8 -4,3 -9,4 -15,4 -5,0 -9,0 -12,-2 -4,-2 -7,-4 -8,-7 -2,-3 -3,-7 -3,-12l0 -30c0,-3 0,-6 0,-6 -1,-1 -1,-2 -2,-2 -1,-1 -3,-1 -6,-1l0 -2zm85 19l0 6c2,-3 4,-4 6,-5 2,-2 4,-2 6,-2 3,0 5,1 7,2 2,2 3,4 3,6 1,2 1,5 1,10l0 16c0,3 0,5 1,6 1,1 2,1 4,1l0 2 -22 0 0 -2c2,0 3,0 4,-2 0,0 1,-2 1,-5l0 -19c0,-3 -1,-5 -1,-6 0,-1 -1,-2 -1,-2 -1,-1 -1,-1 -2,-1 -3,0 -5,2 -7,5l0 23c0,3 0,5 0,6 1,1 2,1 4,1l0 2 -21 0 0 -2c1,0 3,0 3,-1 1,-1 1,-3 1,-6l0 -24c0,-3 0,-5 -1,-6 0,-1 -2,-1 -3,-1l0 -2 17 0zm43 -20c2,0 4,1 5,2 2,1 2,3 2,5 0,2 0,3 -2,5 -1,1 -3,2 -5,2 -1,0 -3,-1 -4,-2 -2,-2 -2,-3 -2,-5 0,-2 0,-4 2,-5 1,-1 3,-2 4,-2zm7 20l0 33c0,3 0,5 1,6 0,1 2,1 4,1l0 2 -23 0 0 -2c2,0 3,0 4,-1 1,-1 1,-3 1,-6l0 -24c0,-3 0,-5 -1,-6 -1,-1 -2,-1 -4,-1l0 -2 18 0zm28 43l-14 -32c-2,-4 -3,-7 -4,-8 -1,-1 -2,-1 -3,-1l0 -2 22 0 0 2c-2,0 -2,0 -3,0 -1,1 -1,2 -1,3 0,1 1,3 2,6l7 16 5 -14c2,-4 3,-6 3,-8 0,-1 -1,-2 -1,-2 -1,-1 -2,-1 -4,-1l0 -2 14 0 0 2c-2,0 -3,0 -3,1 -1,1 -3,3 -4,7l-14 33 -2 0zm62 -23l-23 0c0,5 2,9 5,13 2,2 4,3 7,3 2,0 3,0 5,-1 1,-1 3,-3 5,-5l1 1c-2,4 -5,7 -7,9 -3,2 -6,3 -10,3 -6,0 -11,-2 -14,-7 -3,-4 -4,-9 -4,-14 0,-7 2,-13 6,-17 4,-4 8,-6 13,-6 4,0 8,2 11,5 3,4 5,9 5,16zm-11 -3c0,-5 0,-8 -1,-10 0,-2 -1,-3 -2,-4 -1,-1 -2,-1 -3,-1 -1,0 -2,1 -3,2 -2,3 -3,6 -3,11l0 2 12 0zm34 -17l0 10c2,-5 5,-8 7,-9 2,-1 4,-2 6,-2 2,0 3,0 4,1 1,2 1,3 1,5 0,2 0,3 -1,4 -1,2 -2,2 -4,2 -1,0 -2,0 -4,-1 -1,-1 -1,-2 -2,-2 0,0 0,0 -1,0 -1,0 -1,0 -2,1 -1,1 -2,2 -3,4 -1,3 -1,6 -1,10l0 9 0 3c0,1 0,2 0,3 0,1 1,1 2,2 0,0 2,0 3,0l0 2 -23 0 0 -2c2,0 4,0 4,-1 1,-1 1,-3 1,-7l0 -23c0,-2 0,-4 0,-5 0,0 -1,-1 -1,-1 -1,-1 -2,-1 -4,-1l0 -2 18 0zm49 -1l1 14 -2 0c-1,-4 -3,-7 -5,-8 -2,-2 -4,-3 -6,-3 -1,0 -2,1 -3,2 -1,0 -1,1 -1,2 0,1 0,2 1,3 1,1 3,3 8,6 4,3 7,5 8,8 1,2 2,4 2,6 0,3 0,5 -2,7 -1,2 -2,4 -4,5 -3,2 -5,2 -7,2 -2,0 -5,0 -8,-2 -1,0 -2,0 -2,0 -1,0 -2,1 -3,2l-1 0 -1 -15 2 0c1,4 3,7 5,9 2,2 5,3 7,3 1,0 2,-1 3,-2 1,0 2,-1 2,-3 0,-1 -1,-2 -2,-3 -1,-1 -3,-3 -6,-5 -4,-3 -7,-6 -9,-7 -2,-3 -2,-5 -2,-8 0,-4 1,-7 3,-9 2,-3 5,-4 9,-4 3,0 5,1 7,2 1,0 1,0 2,0 0,0 1,0 1,0 1,0 1,-1 2,-2l1 0zm20 -19c2,0 3,1 5,2 1,1 2,3 2,5 0,2 -1,3 -2,5 -2,1 -3,2 -5,2 -2,0 -4,-1 -5,-2 -2,-2 -2,-3 -2,-5 0,-2 0,-4 2,-5 1,-1 3,-2 5,-2zm6 20l0 33c0,3 0,5 1,6 1,1 2,1 4,1l0 2 -23 0 0 -2c2,0 4,0 4,-1 1,-1 1,-3 1,-6l0 -24c0,-3 0,-5 -1,-6 0,-1 -2,-1 -4,-1l0 -2 18 0zm50 -19l0 48c0,4 0,6 0,6 0,1 1,2 1,2 1,1 2,1 4,1l0 2 -18 3 0 -6c-2,2 -4,4 -6,5 -1,1 -3,1 -5,1 -5,0 -10,-2 -13,-7 -2,-4 -3,-9 -3,-14 0,-5 0,-9 2,-12 1,-4 3,-7 6,-8 3,-2 6,-3 9,-3 2,0 4,0 5,1 2,1 3,2 5,4l0 -13c0,-3 0,-5 0,-5 -1,-1 -1,-2 -2,-2 -1,-1 -2,-1 -4,-1l0 -2 19 0zm-13 29c-2,-5 -5,-7 -8,-7 -1,0 -2,1 -3,1 -1,1 -2,3 -2,5 -1,2 -1,6 -1,11 0,5 0,9 1,11 1,3 2,5 3,6 1,0 2,1 3,1 2,0 5,-2 7,-6l0 -22zm46 26c-5,4 -10,7 -14,7 -2,0 -4,-1 -6,-3 -1,-1 -2,-3 -2,-6 0,-3 1,-6 4,-8 3,-3 9,-6 18,-10l0 -5c0,-3 0,-5 0,-6 -1,0 -1,-1 -2,-2 -1,0 -2,-1 -4,-1 -2,0 -3,1 -4,2 -1,0 -2,1 -2,2 0,0 1,1 2,2 1,1 1,2 1,4 0,1 0,2 -1,3 -1,1 -3,2 -5,2 -1,0 -3,-1 -4,-2 -2,-1 -2,-2 -2,-4 0,-2 1,-4 2,-6 2,-2 4,-3 7,-4 4,-2 7,-2 10,-2 4,0 7,1 9,2 3,2 4,4 5,6 0,1 1,4 1,9l0 16c0,2 0,3 0,3 0,1 0,1 0,1 1,1 1,1 1,1 1,0 2,-1 3,-2l1 1c-1,2 -3,4 -4,5 -2,1 -4,2 -6,2 -2,0 -4,-1 -5,-2 -2,-1 -3,-3 -3,-5zm0 -4l0 -13c-4,2 -6,4 -8,6 -1,2 -2,4 -2,5 0,2 1,3 2,4 0,1 2,1 3,1 1,0 3,-1 5,-3zm63 -51l0 48c0,4 0,6 1,6 0,1 0,2 1,2 1,1 2,1 3,1l0 2 -17 3 0 -6c-2,2 -4,4 -6,5 -1,1 -3,1 -5,1 -6,0 -10,-2 -13,-7 -3,-4 -4,-9 -4,-14 0,-5 1,-9 3,-12 1,-4 3,-7 6,-8 3,-2 5,-3 9,-3 2,0 3,0 5,1 1,1 3,2 5,4l0 -13c0,-3 0,-5 -1,-5 0,-1 0,-2 -1,-2 -1,-1 -2,-1 -4,-1l0 -2 18 0zm-12 29c-2,-5 -5,-7 -8,-7 -1,0 -2,1 -3,1 -1,1 -2,3 -3,5 0,2 -1,6 -1,11 0,5 1,9 1,11 1,3 2,5 4,6 0,0 1,1 2,1 3,0 5,-2 8,-6l0 -22z"/>
   <path class="fil8" d="M605 348l0 54c0,4 1,6 1,6 0,1 0,2 1,3 1,0 2,1 4,1l0 2 -20 3 0 -7c-2,3 -4,5 -6,6 -2,1 -4,1 -6,1 -6,0 -11,-2 -15,-8 -2,-4 -4,-9 -4,-16 0,-5 1,-9 3,-13 2,-4 4,-7 7,-9 3,-2 6,-4 10,-4 2,0 4,1 6,2 1,1 3,2 5,4l0 -14c0,-4 0,-6 0,-6 -1,-1 -1,-2 -2,-3 -1,0 -2,0 -5,0l0 -2 21 0zm-14 32c-2,-5 -5,-8 -9,-8 -1,0 -2,1 -3,1 -1,1 -2,3 -3,6 -1,3 -1,7 -1,12 0,6 0,10 1,13 1,3 2,5 4,6 1,1 2,1 3,1 3,0 6,-2 8,-7l0 -24zm66 11l-26 0c0,6 2,11 5,15 2,2 5,4 9,4 2,0 3,-1 5,-2 2,-1 3,-3 5,-6l2 1c-2,5 -5,9 -8,11 -3,2 -7,3 -11,3 -7,0 -12,-2 -16,-8 -3,-4 -4,-9 -4,-16 0,-8 2,-14 6,-19 4,-4 9,-7 15,-7 5,0 9,2 12,6 4,4 6,10 6,18zm-12 -4c0,-5 -1,-9 -1,-11 -1,-2 -2,-3 -3,-4 -1,-1 -2,-1 -3,-1 -2,0 -3,1 -4,2 -2,3 -3,7 -3,13l0 1 14 0zm68 -2l0 19c0,4 0,6 1,7 0,1 1,2 2,2 1,1 4,1 7,1l0 2 -35 0 0 -2c3,0 5,0 6,-1 1,0 2,-1 3,-2 0,-1 0,-3 0,-7l0 -44c0,-4 0,-7 0,-8 -1,0 -2,-1 -3,-2 -1,0 -3,-1 -6,-1l0 -1 30 0c10,0 17,1 21,5 4,3 6,8 6,13 0,4 -1,8 -4,11 -3,4 -6,6 -11,7 -4,1 -9,1 -17,1zm0 -34l0 30c1,0 2,0 3,0 4,0 7,-1 9,-3 2,-3 4,-7 4,-12 0,-5 -2,-9 -4,-11 -2,-2 -5,-4 -10,-4l-2 0zm79 40l-26 0c0,6 2,11 5,15 2,2 5,4 8,4 2,0 4,-1 6,-2 2,-1 3,-3 5,-6l2 1c-3,5 -6,9 -9,11 -3,2 -6,3 -10,3 -7,0 -13,-2 -16,-8 -3,-4 -5,-9 -5,-16 0,-8 3,-14 7,-19 4,-4 9,-7 15,-7 5,0 9,2 12,6 4,4 6,10 6,18zm-13 -4c0,-5 0,-9 0,-11 -1,-2 -2,-3 -3,-4 -1,-1 -2,-1 -3,-1 -2,0 -3,1 -4,2 -2,3 -3,7 -3,13l0 1 13 0zm38 -18l0 11c3,-5 6,-9 9,-10 2,-2 4,-3 6,-3 2,0 4,1 5,2 1,1 1,3 1,5 0,2 0,4 -1,5 -1,2 -3,2 -4,2 -2,0 -3,0 -5,-1 -1,-2 -2,-2 -2,-2 0,-1 -1,-1 -1,-1 -1,0 -2,1 -3,1 -1,2 -2,3 -3,5 -1,4 -2,7 -2,11l0 11 0 3c0,2 1,3 1,4 0,0 1,1 2,2 0,0 2,0 4,0l0 2 -26 0 0 -2c2,0 3,0 4,-1 1,-1 1,-4 1,-8l0 -26c0,-3 0,-5 0,-5 -1,-1 -1,-2 -2,-2 0,-1 -1,-1 -3,-1l0 -2 19 0zm65 22l-26 0c0,6 2,11 5,15 2,2 5,4 8,4 2,0 4,-1 6,-2 1,-1 3,-3 5,-6l2 1c-3,5 -6,9 -9,11 -3,2 -6,3 -10,3 -7,0 -13,-2 -16,-8 -3,-4 -5,-9 -5,-16 0,-8 2,-14 7,-19 4,-4 9,-7 15,-7 4,0 9,2 12,6 4,4 5,10 6,18zm-13 -4c0,-5 0,-9 -1,-11 0,-2 -1,-3 -2,-4 -1,-1 -2,-1 -3,-1 -2,0 -3,1 -4,2 -2,3 -3,7 -3,13l0 1 13 0zm30 -41c2,0 4,1 5,2 2,2 3,4 3,6 0,2 -1,4 -3,5 -1,2 -3,3 -5,3 -2,0 -4,-1 -6,-3 -1,-1 -2,-3 -2,-5 0,-2 1,-4 2,-6 2,-1 4,-2 6,-2zm7 23l0 37c0,4 0,6 1,7 1,1 3,1 5,1l0 2 -26 0 0 -2c2,0 4,0 5,-2 1,0 1,-2 1,-6l0 -27c0,-4 -1,-6 -1,-7 -1,-1 -3,-1 -5,-1l0 -2 20 0zm30 0l0 11c3,-5 6,-9 8,-10 2,-2 5,-3 7,-3 2,0 3,1 4,2 1,1 2,3 2,5 0,2 -1,4 -2,5 -1,2 -2,2 -4,2 -1,0 -3,0 -4,-1 -1,-2 -2,-2 -2,-2 -1,-1 -1,-1 -2,-1 -1,0 -1,1 -2,1 -2,2 -3,3 -3,5 -2,4 -2,7 -2,11l0 11 0 3c0,2 0,3 0,4 1,0 1,1 2,2 1,0 2,0 4,0l0 2 -25 0 0 -2c2,0 3,0 4,-1 0,-1 1,-4 1,-8l0 -26c0,-3 0,-5 -1,-5 0,-1 0,-2 -1,-2 -1,-1 -2,-1 -3,-1l0 -2 19 0zm52 40c-6,5 -11,8 -15,8 -3,0 -5,-1 -7,-3 -2,-2 -3,-4 -3,-7 0,-3 2,-6 5,-9 3,-3 10,-7 20,-12l0 -5c0,-3 0,-5 0,-6 -1,-1 -1,-2 -3,-3 -1,0 -2,-1 -3,-1 -2,0 -4,1 -6,2 -1,0 -1,1 -1,2 0,1 1,1 1,3 2,1 2,2 2,4 0,1 0,3 -1,4 -2,1 -3,2 -5,2 -2,0 -4,-1 -6,-2 -1,-2 -2,-3 -2,-5 0,-2 1,-4 3,-7 2,-2 5,-4 8,-5 4,-1 7,-2 11,-2 4,0 8,1 10,3 3,2 5,4 6,6 0,2 0,5 0,10l0 18c0,3 0,4 1,5 0,0 0,0 0,1 1,0 1,0 1,0 1,0 2,0 3,-2l2 2c-2,2 -4,4 -6,5 -1,1 -3,2 -6,2 -2,0 -4,-1 -6,-2 -2,-1 -2,-3 -3,-6zm0 -4l0 -15c-4,2 -7,5 -9,7 -1,2 -2,4 -2,6 0,1 1,3 2,4 1,1 2,1 3,1 2,0 4,-1 6,-3z"/>
   <path class="fil7 str1" d="M497 273c-18,16 -34,24 -49,24 -14,0 -25,-6 -34,-16 -8,-10 -13,-22 -13,-36 0,-22 10,-40 29,-52 9,-7 20,-10 33,-10 11,0 22,2 31,6l0 25 -6 0c0,-8 -4,-14 -11,-19 -6,-4 -13,-6 -22,-6 -12,0 -22,5 -29,14 -7,9 -10,19 -10,32 0,14 4,25 11,34 8,10 18,15 32,15 12,0 25,-5 38,-16l0 5zm109 21l-30 0 0 -4 2 0c1,0 1,-1 1,-3 0,0 0,-1 0,-2l-11 -29 -36 0c-4,11 -6,19 -6,24 0,3 1,6 2,7 2,2 5,3 8,3l4 0 0 4 -38 0 0 -4c7,0 12,-7 18,-20l34 -84 5 0 30 82c2,6 4,11 6,14 3,5 7,8 11,8l0 4zm-39 -43l-16 -45 -18 45 34 0zm129 -37l-6 0c0,-16 -9,-24 -26,-24l-4 0 0 87c0,8 4,13 13,13l0 4 -42 0 0 -4c5,0 9,-1 10,-3 2,-2 3,-5 3,-10l0 -87 -6 0c-15,0 -24,8 -24,24l-6 0 0 -28 88 0 0 28zm120 21c0,11 -3,22 -9,32 -6,10 -15,18 -24,23 -10,4 -19,7 -29,7 -14,0 -27,-5 -36,-15 -10,-10 -15,-22 -15,-37 0,-16 6,-30 18,-43 12,-12 27,-19 43,-19 19,0 34,8 44,23 6,8 8,18 8,29zm-14 15c0,-11 -2,-20 -6,-29 -5,-10 -12,-18 -20,-23 -8,-4 -16,-7 -23,-7 -11,0 -20,4 -26,12 -7,8 -10,17 -10,28 0,15 5,28 13,40 10,12 22,18 36,18 11,0 20,-4 26,-12 7,-7 10,-16 10,-27zm-32 -95c0,2 -1,3 -3,6l-14 15 -4 -2 11 -20c1,-3 3,-4 5,-4 1,0 2,1 3,2 1,1 2,2 2,3zm134 108l-6 31 -70 0 0 -4c5,0 9,-1 10,-3 2,-2 3,-5 3,-10l0 -74c0,-5 -1,-8 -3,-10 -1,-2 -5,-3 -10,-3l0 -4 42 0 0 4c-5,0 -9,1 -11,3 -1,2 -2,5 -2,10l0 87 11 0c17,0 27,-9 30,-27l6 0zm48 31l-42 0 0 -4c5,0 9,-1 10,-3 2,-2 3,-5 3,-10l0 -74c0,-5 -1,-8 -3,-10 -1,-2 -5,-3 -10,-3l0 -4 42 0 0 4c-5,0 -9,1 -11,3 -1,2 -2,5 -2,10l0 74c0,8 4,13 13,13l0 4zm106 -21c-17,16 -34,24 -48,24 -14,0 -26,-6 -35,-16 -8,-10 -12,-22 -12,-36 0,-22 9,-40 28,-52 9,-7 20,-10 33,-10 11,0 22,2 32,6l0 25 -6 0c-1,-8 -5,-14 -11,-19 -6,-4 -14,-6 -22,-6 -13,0 -23,5 -30,14 -6,9 -10,19 -10,32 0,14 4,25 11,34 8,10 19,15 32,15 12,0 25,-5 38,-16l0 5zm109 21l-30 0 0 -4 2 0c1,0 1,-1 1,-3 0,0 0,-1 0,-2l-10 -29 -37 0c-4,11 -6,19 -6,24 0,3 1,6 3,7 2,2 4,3 7,3l5 0 0 4 -38 0 0 -4c6,0 12,-7 17,-20l35 -84 5 0 30 82c2,6 4,11 5,14 4,5 7,8 11,8l0 4zm-39 -43l-15 -45 -18 45 33 0z"/>
   <path id="VIGILADO_x0020_MINEDUCACION.cdr" class="fil5" d="M233 462l-7 23 -6 0 -7 -23 6 0 4 17 5 -17 5 0zm7 0l0 23 -5 0 0 -23 5 0zm24 11l0 12 -3 0c0,-1 0,-2 -1,-2 -1,2 -4,3 -6,3 -3,0 -6,-2 -7,-4 -2,-2 -3,-5 -3,-8 0,-4 1,-7 3,-9 2,-3 4,-4 7,-4 3,0 5,1 7,2 1,2 2,4 3,6l-6 1c0,-3 -1,-4 -4,-4 -1,0 -2,0 -3,2 -1,1 -1,3 -1,6 0,2 0,4 1,5 1,1 2,2 3,2 1,0 2,0 3,-1 1,-1 1,-2 1,-3l-4 0 0 -4 10 0zm9 -11l0 23 -5 0 0 -23 5 0zm11 19l9 0 0 4 -15 0 0 -23 6 0 0 19zm24 -19l7 23 -6 0 -2 -5 -7 0 -2 5 -4 0 7 -23 7 0zm-7 14l5 0 -2 -8 -3 8zm16 -14l8 0c3,0 5,0 6,1 2,1 3,2 4,4 1,1 2,4 2,6 0,4 -1,7 -3,9 -2,2 -5,3 -8,3l-9 0 0 -23zm6 4l0 15 2 0c2,0 4,-1 5,-2 1,-2 1,-4 1,-6 0,-1 0,-3 -1,-4 0,-1 -1,-2 -2,-2 -1,-1 -2,-1 -3,-1l-2 0zm26 20c-3,0 -5,-2 -7,-4 -2,-2 -3,-5 -3,-9 0,-3 1,-6 3,-8 2,-3 4,-4 7,-4 4,0 6,2 8,4 1,2 2,5 2,8 0,4 -1,7 -2,9 -2,2 -5,4 -8,4zm0 -20c-3,0 -4,2 -4,7 0,6 1,8 4,8 3,0 5,-2 5,-8 0,-5 -2,-7 -5,-7zm33 19l-6 -19 0 19 -4 0 0 -23 8 0 4 14 5 -14 8 0 0 23 -5 0 0 -19 -6 19 -4 0zm26 -23l0 23 -6 0 0 -23 6 0zm22 0l0 23 -4 0 -9 -16c0,1 0,1 0,1 0,0 0,1 0,1l0 14 -5 0 0 -23 6 0 8 14c0,-1 0,-2 0,-2l0 -12 4 0zm22 4l-11 0 0 5 9 0 0 4 -9 0 0 6 11 0 0 4 -17 0 0 -23 17 0 0 4zm3 -4l8 0c2,0 5,0 6,1 2,1 3,2 4,4 1,1 2,4 2,6 0,4 -1,7 -3,9 -2,2 -5,3 -9,3l-8 0 0 -23zm6 4l0 15 2 0c2,0 4,-1 5,-2 0,-2 1,-4 1,-6 0,-1 0,-3 -1,-4 0,-1 -1,-2 -2,-2 -1,-1 -2,-1 -3,-1l-2 0zm36 -4l0 14c0,3 0,4 -1,6 0,1 -1,2 -3,2 -1,1 -3,2 -6,2 -2,0 -4,-1 -5,-1 -1,-1 -2,-2 -3,-3 -1,-2 -1,-3 -1,-6l0 -14 6 0 0 14c0,2 0,3 0,3 1,1 1,1 2,2 0,0 1,0 2,0 1,0 2,0 3,0 0,-1 1,-1 1,-2 0,0 0,-1 0,-3l0 -14 5 0zm23 8l-6 1c0,-4 -1,-5 -3,-5 -3,0 -5,2 -5,7 0,3 1,5 1,6 1,2 2,2 4,2 2,0 3,-1 4,-4l5 0c0,3 -1,5 -3,6 -2,2 -4,3 -6,3 -3,0 -6,-2 -8,-4 -2,-2 -3,-5 -3,-9 0,-3 1,-6 3,-8 2,-3 4,-4 8,-4 5,0 9,3 9,9zm15 -8l7 23 -6 0 -1 -5 -8 0 -1 5 -5 0 7 -23 7 0zm-7 14l5 0 -2 -8 -3 8zm35 -6l-6 1c0,-4 -1,-5 -4,-5 -3,0 -4,2 -4,7 0,3 0,5 1,6 1,2 2,2 3,2 3,0 4,-1 5,-4l5 0c0,3 -2,5 -3,6 -2,2 -4,3 -7,3 -3,0 -5,-2 -7,-4 -2,-2 -3,-5 -3,-9 0,-3 1,-6 3,-8 1,-3 4,-4 7,-4 6,0 9,3 10,9zm9 -8l0 23 -6 0 0 -23 6 0zm13 24c-3,0 -5,-2 -7,-4 -2,-2 -3,-5 -3,-9 0,-3 1,-6 3,-8 2,-3 4,-4 7,-4 4,0 6,2 8,4 1,2 2,5 2,8 0,4 -1,7 -2,9 -2,2 -5,4 -8,4zm0 -20c-3,0 -4,2 -4,7 0,6 1,8 4,8 3,0 4,-2 4,-8 0,-5 -1,-7 -4,-7zm5 -12l1 2 -8 4 -1 -2 8 -4zm27 8l0 23 -5 0 -9 -16c0,1 0,1 0,1 0,0 0,1 0,1l0 14 -4 0 0 -23 6 0 8 14c0,-1 0,-2 0,-2l0 -12 4 0z"/>
  </g>
 </g>
</svg>
